
      <svg data-logo="logo" xmlns="http://www.w3.org/2000/svg" viewBox="0 0 215 43">
        <g id="logogram" transform="translate(0, 1) rotate(0) "><path d="M35.5 0.5C45.9934 0.5 54.5 9.00659 54.5 19.5V40.5C50.0817 40.5 46.5 36.9183 46.5 32.5V19.5C46.5 13.4249 41.5751 8.5 35.5 8.5H30.2988C27.6467 8.50004 25.1029 9.55339 23.2275 11.4287L9.67188 24.9854C8.92179 25.7354 8.50006 26.7527 8.5 27.8135V28.5C8.5 30.7091 10.2909 32.5 12.5 32.5H30.5C30.5 36.7801 27.1389 40.2748 22.9121 40.4893L22.5 40.5H12.5C5.87259 40.5 0.5 35.1274 0.5 28.5V27.8135C0.500062 24.631 1.76427 21.5785 4.01465 19.3281L17.5713 5.77246C20.9469 2.39685 25.525 0.500044 30.2988 0.5H35.5Z" fill="#5044E5"/><path d="M37.5 12.5C40.2614 12.5 42.5 14.7386 42.5 17.5V40.5C38.0817 40.5 34.5 36.9183 34.5 32.5V20.5H31.1562L24.6207 27.0355C23.683 27.9732 22.4113 28.5 21.0852 28.5H12.9775C12.5588 28.5 12.3491 27.9937 12.6452 27.6976L26.3789 13.9648C27.3165 13.0272 28.588 12.5 29.9141 12.5H37.5Z" fill="#5044E5"/></g>
        <g id="logotype" transform="translate(61, 1.5)"><path fill="#5044E5" d="M12.48 31.77L12.48 39.97L7.78 39.97L7.78 14.70L8.91 14.70L10.77 16.90Q11.40 16.30 12.15 15.77Q12.90 15.24 13.72 14.86Q14.53 14.47 15.40 14.25Q16.27 14.03 17.16 14.03L17.16 14.03Q19.09 14.03 20.79 14.72Q22.49 15.41 23.76 16.68Q25.04 17.94 25.77 19.73Q26.51 21.52 26.51 23.69L26.51 23.69Q26.51 25.94 25.77 27.74Q25.04 29.55 23.76 30.80Q22.49 32.06 20.79 32.73Q19.09 33.39 17.16 33.39L17.16 33.39Q16.54 33.39 15.94 33.26Q15.33 33.12 14.74 32.89Q14.15 32.66 13.58 32.37Q13.01 32.08 12.48 31.77L12.48 31.77ZM21.83 23.69L21.83 23.69Q21.83 22.52 21.46 21.60Q21.09 20.68 20.46 20.04Q19.83 19.40 18.97 19.05Q18.12 18.71 17.16 18.71L17.16 18.71Q16.20 18.71 15.36 19.05Q14.51 19.40 13.88 20.04Q13.25 20.68 12.88 21.60Q12.51 22.52 12.51 23.69L12.51 23.69Q12.51 24.80 12.88 25.72Q13.25 26.64 13.88 27.29Q14.51 27.94 15.36 28.30Q16.20 28.66 17.16 28.66L17.16 28.66Q18.12 28.66 18.97 28.30Q19.83 27.94 20.46 27.29Q21.09 26.64 21.46 25.72Q21.83 24.80 21.83 23.69ZM33.75 22.92L33.75 33L29.09 33L29.09 14.70L30.22 14.70L31.75 16.87Q32.88 15.84 34.32 15.29Q35.75 14.73 37.29 14.73L37.29 14.73L41.41 14.73L41.41 19.38L37.29 19.38Q36.56 19.38 35.91 19.65Q35.26 19.93 34.78 20.40Q34.30 20.88 34.03 21.53Q33.75 22.18 33.75 22.92L33.75 22.92ZM49.08 9.72L49.08 9.72Q49.08 10.37 48.84 10.94Q48.59 11.50 48.16 11.92Q47.73 12.34 47.16 12.59Q46.59 12.83 45.94 12.83L45.94 12.83Q45.29 12.83 44.72 12.59Q44.14 12.34 43.73 11.92Q43.31 11.50 43.06 10.94Q42.81 10.37 42.81 9.72L42.81 9.72Q42.81 9.09 43.06 8.52Q43.31 7.95 43.73 7.53Q44.14 7.11 44.72 6.86Q45.29 6.61 45.94 6.61L45.94 6.61Q46.59 6.61 47.16 6.86Q47.73 7.11 48.16 7.53Q48.59 7.95 48.84 8.52Q49.08 9.09 49.08 9.72ZM48.28 14.70L48.28 33L43.58 33L43.58 14.70L48.28 14.70ZM58.64 40.01L56.24 39.97L56.24 35.27L58.84 35.31Q59.53 35.31 60.16 35.08Q60.79 34.86 61.33 34.47Q61.87 34.08 62.28 33.54Q62.69 33 62.94 32.37L62.94 32.37Q62.17 32.69 61.38 33.02Q60.58 33.34 59.78 33.34L59.78 33.34Q58.09 33.34 56.60 32.74Q55.12 32.15 54.00 31.04Q52.88 29.94 52.24 28.36Q51.60 26.78 51.60 24.81L51.60 24.81L51.60 14.70L56.24 14.70L56.24 24.81Q56.24 25.79 56.53 26.51Q56.81 27.24 57.29 27.73Q57.77 28.21 58.41 28.45Q59.05 28.69 59.78 28.69L59.78 28.69Q60.50 28.69 61.14 28.36Q61.78 28.03 62.26 27.48Q62.74 26.93 63.01 26.24Q63.29 25.55 63.29 24.81L63.29 24.81L63.29 14.70L67.98 14.70L67.98 30.69Q67.97 32.62 67.23 34.32Q66.50 36.01 65.22 37.27Q63.95 38.54 62.26 39.27Q60.57 40.01 58.64 40.01L58.64 40.01ZM89.26 14.73L89.26 33L88.13 33L86.32 30.49Q85.66 31.09 84.91 31.61Q84.17 32.13 83.35 32.51Q82.53 32.90 81.67 33.12Q80.80 33.34 79.91 33.34L79.91 33.34Q77.98 33.34 76.28 32.69Q74.58 32.04 73.31 30.80Q72.04 29.56 71.30 27.77Q70.57 25.98 70.57 23.69L70.57 23.69Q70.57 21.55 71.30 19.76Q72.04 17.98 73.31 16.70Q74.58 15.41 76.28 14.71Q77.98 14.00 79.91 14.00L79.91 14.00Q80.80 14.00 81.67 14.22Q82.55 14.44 83.37 14.83Q84.19 15.23 84.93 15.76Q85.67 16.29 86.32 16.90L86.32 16.90L88.13 14.73L89.26 14.73ZM84.56 23.69L84.56 23.69Q84.56 22.73 84.19 21.83Q83.83 20.93 83.19 20.24Q82.56 19.55 81.72 19.13Q80.87 18.71 79.91 18.71L79.91 18.71Q78.96 18.71 78.11 19.04Q77.26 19.36 76.64 19.99Q76.02 20.63 75.66 21.56Q75.30 22.49 75.30 23.69L75.30 23.69Q75.30 24.88 75.66 25.81Q76.02 26.75 76.64 27.38Q77.26 28.01 78.11 28.33Q78.96 28.66 79.91 28.66L79.91 28.66Q80.87 28.66 81.72 28.24Q82.56 27.82 83.19 27.13Q83.83 26.44 84.19 25.54Q84.56 24.64 84.56 23.69ZM105.53 33L101.99 33Q100.30 33 98.81 32.36Q97.33 31.72 96.21 30.60Q95.09 29.48 94.45 27.99Q93.81 26.51 93.81 24.81L93.81 24.81L93.81 19.38L91.53 19.38L91.53 14.73L93.81 14.73L93.81 7.42L98.46 7.42L98.46 14.73L105.53 14.73L105.53 19.38L98.46 19.38L98.46 24.81Q98.46 25.55 98.73 26.19Q99.00 26.83 99.48 27.31Q99.96 27.79 100.61 28.07Q101.26 28.35 101.99 28.35L101.99 28.35L105.53 28.35L105.53 33ZM125.87 14.73L125.87 33L124.74 33L122.93 30.49Q122.26 31.09 121.52 31.61Q120.78 32.13 119.96 32.51Q119.13 32.90 118.27 33.12Q117.41 33.34 116.52 33.34L116.52 33.34Q114.59 33.34 112.89 32.69Q111.19 32.04 109.91 30.80Q108.64 29.56 107.91 27.77Q107.17 25.98 107.17 23.69L107.17 23.69Q107.17 21.55 107.91 19.76Q108.64 17.98 109.91 16.70Q111.19 15.41 112.89 14.71Q114.59 14.00 116.52 14.00L116.52 14.00Q117.41 14.00 118.28 14.22Q119.15 14.44 119.97 14.83Q120.79 15.23 121.54 15.76Q122.28 16.29 122.93 16.90L122.93 16.90L124.74 14.73L125.87 14.73ZM121.17 23.69L121.17 23.69Q121.17 22.73 120.80 21.83Q120.43 20.93 119.80 20.24Q119.17 19.55 118.32 19.13Q117.48 18.71 116.52 18.71L116.52 18.71Q115.56 18.71 114.72 19.04Q113.87 19.36 113.25 19.99Q112.62 20.63 112.26 21.56Q111.91 22.49 111.91 23.69L111.91 23.69Q111.91 24.88 112.26 25.81Q112.62 26.75 113.25 27.38Q113.87 28.01 114.72 28.33Q115.56 28.66 116.52 28.66L116.52 28.66Q117.48 28.66 118.32 28.24Q119.17 27.82 119.80 27.13Q120.43 26.44 120.80 25.54Q121.17 24.64 121.17 23.69ZM152.70 21.38L152.70 33L148.05 33L148.05 21.38Q148.05 20.90 147.87 20.47Q147.69 20.05 147.37 19.72Q147.04 19.40 146.62 19.22Q146.19 19.04 145.71 19.04L145.71 19.04Q145.23 19.04 144.81 19.22Q144.39 19.40 144.08 19.72Q143.76 20.05 143.58 20.47Q143.40 20.90 143.40 21.38L143.40 21.38L143.40 33L138.74 33L138.74 21.38Q138.74 20.90 138.56 20.47Q138.38 20.05 138.05 19.72Q137.73 19.40 137.30 19.22Q136.87 19.04 136.40 19.04L136.40 19.04Q135.92 19.04 135.50 19.22Q135.08 19.40 134.76 19.72Q134.45 20.05 134.27 20.47Q134.09 20.90 134.09 21.38L134.09 21.38L134.09 33L129.42 33L129.42 14.70L130.55 14.70L131.82 16.10Q132.79 15.28 133.96 14.82Q135.13 14.37 136.40 14.37L136.40 14.37Q137.68 14.37 138.90 14.85Q140.12 15.33 141.04 16.51L141.04 16.51Q141.47 15.93 142.02 15.52Q142.56 15.11 143.17 14.85Q143.78 14.59 144.43 14.48Q145.08 14.37 145.71 14.37L145.71 14.37Q147.16 14.37 148.44 14.92Q149.71 15.47 150.66 16.41Q151.61 17.36 152.15 18.64Q152.70 19.93 152.70 21.38L152.70 21.38Z"/></g>
        
      </svg>
    